<svg xmlns="http://www.w3.org/2000/svg" viewBox="0 0 200 200" width="200" height="200">
  <rect width="200" height="200" fill="#6b9ac4"/>

  <!-- Outer white stroke -->
  <path d="M 100 30 A 50 50 0 0 0 50 80 L 50 120 L 30 120 L 30 140 L 70 140 L 70 120 L 70 80 A 30 30 0 0 1 100 50 A 30 30 0 0 1 130 80 L 130 120 L 130 140 L 170 140 L 170 120 L 150 120 L 150 80 A 50 50 0 0 0 100 30 Z"
        fill="none" stroke="#f5f5f5" stroke-width="8"/>

  <!-- Gold/yellow omega -->
  <path d="M 100 38 A 42 42 0 0 0 58 80 L 58 120 L 38 120 L 38 132 L 62 132 L 62 120 L 62 80 A 38 38 0 0 1 100 42 A 38 38 0 0 1 138 80 L 138 120 L 138 132 L 162 132 L 162 120 L 142 120 L 142 80 A 42 42 0 0 0 100 38 Z"
        fill="#e6a847"/>

  <!-- Inner blue circle -->
  <circle cx="100" cy="90" r="25" fill="#6b9ac4"/>

  <!-- Inner white stroke -->
  <circle cx="100" cy="90" r="25" fill="none" stroke="#f5f5f5" stroke-width="4"/>

  <!-- Bottom pedestals - left -->
  <rect x="30" y="120" width="40" height="20" fill="none" stroke="#f5f5f5" stroke-width="6"/>
  <rect x="36" y="124" width="28" height="12" fill="#e6a847"/>

  <!-- Bottom pedestals - right -->
  <rect x="130" y="120" width="40" height="20" fill="none" stroke="#f5f5f5" stroke-width="6"/>
  <rect x="136" y="124" width="28" height="12" fill="#e6a847"/>
</svg>
