<svg width="322" height="233" viewBox="0 0 322 233" fill="none" xmlns="http://www.w3.org/2000/svg">
<path opacity="0.6" d="M0.434096 118.774L20.5593 86.5217L58.6753 110.306C55.6547 98.4634 54.9641 86.151 56.6034 73.3688C58.4056 60.6882 63.1691 48.1582 70.894 35.7786C78.5172 23.5619 87.7601 13.8271 98.6229 6.57394C109.648 -0.577523 121.683 -5.17555 134.728 -7.22013C147.772 -9.26471 161.133 -8.73499 174.812 -5.63098C188.755 -2.5882 202.242 2.99889 215.273 11.1303C228.63 19.465 239.658 29.1751 248.356 40.2607C257.156 51.1834 263.423 62.9016 267.156 75.4154C271.052 88.0308 272.161 100.943 270.481 114.153C268.903 127.2 264.353 139.75 256.832 151.804C249.107 164.183 239.864 173.918 229.103 181.008C218.504 188.2 207.141 192.991 195.013 195.381L233.374 219.318L213.248 251.57L123.822 195.768L142.575 165.715C157.901 166.905 171.759 164.463 184.149 158.389C196.804 152.254 206.892 143.16 214.413 131.106C219.495 122.961 222.766 114.818 224.226 106.676C225.685 98.5345 225.476 90.7093 223.598 83.2008C221.822 75.5294 218.439 68.4392 213.448 61.9301C208.457 55.4211 202.052 49.7271 194.233 44.8483C186.578 40.0711 178.73 36.8713 170.689 35.2489C162.649 33.6265 154.793 33.7034 147.122 35.4796C139.552 37.0928 132.35 40.2932 125.515 45.0809C118.843 49.9701 112.966 56.487 107.884 64.6314C100.363 76.6852 96.5763 89.8251 96.5255 104.051C96.5763 118.114 100.606 131.605 108.613 144.523L89.8601 174.576L0.434096 118.774Z" fill="#00273F"/>
</svg>
