<svg width="27" height="26" viewBox="0 0 27 26" fill="none" xmlns="http://www.w3.org/2000/svg">
<path d="M13.5508 1.09706e-06C6.30566 -0.00292859 0.4375 5.86231 0.4375 13.1016C0.4375 18.8262 4.1084 23.6924 9.2207 25.4795C9.90918 25.6523 9.80371 25.1631 9.80371 24.8291V22.5586C5.82813 23.0244 5.66699 20.3936 5.40039 19.9541C4.86133 19.0342 3.58691 18.7998 3.96777 18.3604C4.87305 17.8945 5.7959 18.4775 6.86523 20.0566C7.63867 21.2021 9.14746 21.0088 9.91211 20.8184C10.0791 20.1299 10.4365 19.5146 10.9287 19.0371C6.80957 18.2988 5.09277 15.7852 5.09277 12.7969C5.09277 11.3467 5.57031 10.0137 6.50781 8.93848C5.91016 7.16602 6.56348 5.64844 6.65137 5.42285C8.35352 5.27051 10.123 6.6416 10.2607 6.75C11.2275 6.48926 12.332 6.35156 13.5684 6.35156C14.8105 6.35156 15.918 6.49512 16.8936 6.75879C17.2246 6.50684 18.8652 5.3291 20.4473 5.47266C20.5322 5.69824 21.1709 7.18067 20.6084 8.92969C21.5576 10.0078 22.041 11.3525 22.041 12.8057C22.041 15.7998 20.3125 18.3164 16.1816 19.043C16.5355 19.3909 16.8164 19.8059 17.008 20.2636C17.1997 20.7214 17.2982 21.2127 17.2979 21.709V25.0049C17.3213 25.2686 17.2979 25.5293 17.7373 25.5293C22.9258 23.7803 26.6611 18.8789 26.6611 13.1045C26.6611 5.86231 20.79 1.09706e-06 13.5508 1.09706e-06V1.09706e-06Z" fill="white"/>
</svg>
