<svg width="24" height="24" viewBox="0 0 24 24" fill="none" xmlns="http://www.w3.org/2000/svg">
<path d="M22.5 0.0458984H0.9375C0.418945 0.0458984 0 0.464844 0 0.983398V22.5459C0 23.0645 0.418945 23.4834 0.9375 23.4834H22.5C23.0186 23.4834 23.4375 23.0645 23.4375 22.5459V0.983398C23.4375 0.464844 23.0186 0.0458984 22.5 0.0458984ZM6.95215 20.0176H3.47461V8.83203H6.95215V20.0176ZM5.21484 7.30273C4.81619 7.30273 4.42649 7.18452 4.09502 6.96304C3.76355 6.74156 3.50521 6.42676 3.35265 6.05846C3.20009 5.69015 3.16018 5.28487 3.23795 4.89388C3.31572 4.50289 3.50769 4.14374 3.78958 3.86185C4.07147 3.57996 4.43062 3.38799 4.82161 3.31021C5.21261 3.23244 5.61788 3.27236 5.98619 3.42491C6.3545 3.57747 6.66929 3.83582 6.89077 4.16729C7.11225 4.49876 7.23047 4.88846 7.23047 5.28711C7.22754 6.40039 6.3252 7.30273 5.21484 7.30273ZM19.9717 20.0176H16.4971V14.5771C16.4971 13.2793 16.4736 11.6123 14.6895 11.6123C12.8818 11.6123 12.6035 13.0244 12.6035 14.4834V20.0176H9.13184V8.83203H12.4658V10.3613H12.5127C12.9756 9.48242 14.1094 8.55371 15.8027 8.55371C19.3242 8.55371 19.9717 10.8711 19.9717 13.8828V20.0176V20.0176Z" fill="white"/>
</svg>
