<svg width="27" height="22" viewBox="0 0 27 22" fill="none" xmlns="http://www.w3.org/2000/svg">
<path d="M25.9736 0.452148H1.59863C1.08008 0.452148 0.661133 0.871094 0.661133 1.38965V20.1396C0.661133 20.6582 1.08008 21.0771 1.59863 21.0771H25.9736C26.4922 21.0771 26.9111 20.6582 26.9111 20.1396V1.38965C26.9111 0.871094 26.4922 0.452148 25.9736 0.452148ZM24.8018 3.69824V18.9678H2.77051V3.69824L1.96191 3.06836L3.11328 1.58887L4.36719 2.56445H23.208L24.4619 1.58887L25.6133 3.06836L24.8018 3.69824V3.69824ZM23.208 2.56152L13.7861 9.88574L4.36426 2.56152L3.11035 1.58594L1.95898 3.06543L2.76758 3.69531L12.7754 11.4766C13.0632 11.7002 13.4173 11.8215 13.7817 11.8215C14.1462 11.8215 14.5003 11.7002 14.7881 11.4766L24.8018 3.69824L25.6104 3.06836L24.459 1.58887L23.208 2.56152Z" fill="white"/>
</svg>
