<svg width="322" height="308" viewBox="0 0 322 308" fill="none" xmlns="http://www.w3.org/2000/svg">
<path opacity="0.6" d="M20.5593 142.522L58.6753 166.306C55.4306 154.097 54.7093 141.653 56.5115 128.972C58.5783 116.23 63.3724 103.832 70.894 91.7786C80.8549 75.8155 93.7395 64.053 109.547 56.491C125.518 49.0307 142.775 46.2199 161.317 48.0586C179.859 49.8973 197.844 56.2545 215.273 67.1303C232.703 78.0061 246.317 91.3675 256.118 107.215C265.919 123.062 270.978 139.798 271.296 157.422C271.614 175.047 266.793 191.841 256.832 207.804C249.31 219.857 240.199 229.562 229.499 236.917C218.901 244.108 207.406 248.93 195.013 251.381L233.374 275.318L213.248 307.57L123.822 251.768L142.575 221.715C157.8 223.068 171.658 220.626 184.149 214.389C196.804 208.254 206.892 199.16 214.413 187.106C221.02 176.518 224.533 165.81 224.953 154.983C225.474 143.992 222.984 133.838 217.482 124.521C212.245 115.143 204.495 107.252 194.233 100.848C183.971 94.4448 173.396 90.901 162.507 90.2168C151.883 89.4715 141.749 91.748 132.106 97.0464C122.565 102.182 114.491 110.044 107.884 120.631C100.261 132.848 96.4747 145.988 96.5255 160.051C96.5763 174.114 100.606 187.605 108.613 200.523L89.8601 230.576L0.434096 174.774L20.5593 142.522Z" fill="black"/>
</svg>
