<svg width="25" height="24" viewBox="0 0 25 24" fill="none" xmlns="http://www.w3.org/2000/svg">
<path d="M23.3262 3.75635L20.2061 0.63916C19.8252 0.258301 19.3154 0.0444336 18.7764 0.0444336C18.2373 0.0444336 17.7275 0.255371 17.3467 0.63916L13.9863 3.99365C13.6055 4.37451 13.3916 4.88721 13.3916 5.42627C13.3916 5.96826 13.6025 6.4751 13.9863 6.85889L16.6113 9.48682C16.0133 10.8801 15.1541 12.1461 14.0801 13.2163C13.0049 14.2974 11.748 15.1499 10.3535 15.7534L7.72852 13.1255C7.34766 12.7446 6.83789 12.5308 6.29883 12.5308C6.03294 12.5298 5.76953 12.5819 5.52403 12.684C5.27853 12.7861 5.05589 12.9362 4.86914 13.1255L1.50586 16.48C1.125 16.8608 0.911133 17.3735 0.911133 17.9126C0.911133 18.4546 1.12207 18.9614 1.50586 19.3452L4.62305 22.4624C5.27344 23.1128 6.16992 23.4849 7.08984 23.4849C7.28027 23.4849 7.46484 23.4702 7.65234 23.438C11.5313 22.7993 15.3809 20.7339 18.4893 17.6284C21.5947 14.5171 23.6572 10.6675 24.3018 6.78564C24.4863 5.68408 24.1172 4.55029 23.3262 3.75635V3.75635ZM22.2246 6.43701C21.6533 9.89111 19.7959 13.3364 16.998 16.1343C14.2002 18.9321 10.7578 20.7896 7.30371 21.3608C6.87012 21.4341 6.4248 21.2876 6.1084 20.9741L3.04687 17.9126L6.29297 14.6636L9.80273 18.1792L9.8291 18.2056L10.4619 17.9712C12.3806 17.2657 14.123 16.1515 15.5683 14.7057C17.0136 13.2599 18.1273 11.5171 18.832 9.59814L19.0664 8.96533L15.5273 5.4292L18.7734 2.18018L21.835 5.2417C22.1514 5.55811 22.2979 6.00342 22.2246 6.43701Z" fill="white"/>
</svg>
