<svg width="27" height="22" viewBox="0 0 27 22" fill="none" xmlns="http://www.w3.org/2000/svg">
<path d="M0.27 21.5V17.54H4.95C4.03 16.66 3.29 15.61 2.73 14.39C2.19 13.17 1.92 11.8 1.92 10.28C1.92 8.78 2.2 7.41 2.76 6.17C3.34 4.93 4.15 3.86 5.19 2.96C6.23 2.06 7.44 1.37 8.82 0.889999C10.22 0.389999 11.72 0.14 13.32 0.14C14.96 0.14 16.47 0.389999 17.85 0.889999C19.23 1.37 20.43 2.06 21.45 2.96C22.49 3.86 23.3 4.94 23.88 6.2C24.46 7.44 24.75 8.8 24.75 10.28C24.75 11.8 24.47 13.17 23.91 14.39C23.37 15.61 22.63 16.66 21.69 17.54H26.4V21.5H15.42V17.81C16.84 17.07 17.93 16.09 18.69 14.87C19.47 13.63 19.86 12.27 19.86 10.79C19.86 9.79 19.7 8.89 19.38 8.09C19.06 7.29 18.61 6.61 18.03 6.05C17.45 5.47 16.76 5.03 15.96 4.73C15.16 4.43 14.28 4.28 13.32 4.28C12.38 4.28 11.51 4.43 10.71 4.73C9.91 5.03 9.22 5.47 8.64 6.05C8.06 6.61 7.6 7.29 7.26 8.09C6.94 8.89 6.78 9.79 6.78 10.79C6.78 12.27 7.17 13.64 7.95 14.9C8.73 16.14 9.83 17.11 11.25 17.81V21.5H0.27Z" fill="#FFC311"/>
<path d="M0.27 21.5H-0.73V22.5H0.27V21.5ZM0.27 17.54V16.54H-0.73V17.54H0.27ZM4.95 17.54V18.54H7.44217L5.64122 16.8174L4.95 17.54ZM2.73 14.39L1.81549 14.7948L1.82117 14.8072L2.73 14.39ZM2.76 6.17L1.85411 5.74628L1.84863 5.75841L2.76 6.17ZM8.82 0.889999L9.14853 1.83453L9.15634 1.83174L8.82 0.889999ZM17.85 0.889999L17.5093 1.83027L17.5215 1.8345L17.85 0.889999ZM21.45 2.96L20.7883 3.70987L20.7956 3.71617L21.45 2.96ZM23.88 6.2L22.9716 6.61815L22.9742 6.62368L23.88 6.2ZM23.91 14.39L23.0011 13.9728L22.9956 13.9853L23.91 14.39ZM21.69 17.54L21.0066 16.81L19.1586 18.54H21.69V17.54ZM26.4 17.54H27.4V16.54H26.4V17.54ZM26.4 21.5V22.5H27.4V21.5H26.4ZM15.42 21.5H14.42V22.5H15.42V21.5ZM15.42 17.81L14.9579 16.9232L14.42 17.2035V17.81H15.42ZM18.69 14.87L17.8435 14.3375L17.8412 14.3413L18.69 14.87ZM19.38 8.09L18.4515 8.46139L18.4515 8.46139L19.38 8.09ZM18.03 6.05L17.3229 6.75711L17.3291 6.76331L17.3354 6.7694L18.03 6.05ZM15.96 4.73L15.6089 5.66633L15.6089 5.66633L15.96 4.73ZM10.71 4.73L11.0611 5.66633L11.0611 5.66633L10.71 4.73ZM8.64 6.05L9.3346 6.7694L9.34091 6.76331L9.34711 6.75711L8.64 6.05ZM7.26 8.09L6.33967 7.69886L6.33549 7.70869L6.33152 7.71861L7.26 8.09ZM7.95 14.9L7.09971 15.4264L7.10354 15.4325L7.95 14.9ZM11.25 17.81H12.25V17.1881L11.6922 16.9131L11.25 17.81ZM11.25 21.5V22.5H12.25V21.5H11.25ZM1.27 21.5V17.54H-0.73V21.5H1.27ZM0.27 18.54H4.95V16.54H0.27V18.54ZM5.64122 16.8174C4.81727 16.0292 4.14911 15.0845 3.63883 13.9728L1.82117 14.8072C2.43089 16.1355 3.24273 17.2908 4.25878 18.2626L5.64122 16.8174ZM3.64443 13.9853C3.1682 12.9093 2.92 11.68 2.92 10.28H0.92C0.92 11.92 1.2118 13.4307 1.81557 14.7947L3.64443 13.9853ZM2.92 10.28C2.92 8.90727 3.17553 7.67951 3.67137 6.58159L1.84863 5.75841C1.22447 7.14049 0.92 8.65273 0.92 10.28H2.92ZM3.66581 6.59368C4.186 5.48156 4.9101 4.52468 5.84438 3.71617L4.53562 2.20383C3.3899 3.19532 2.494 4.37844 1.85419 5.74631L3.66581 6.59368ZM5.84438 3.71617C6.7828 2.90407 7.88054 2.27553 9.14852 1.8345L8.49148 -0.0544979C6.99946 0.464466 5.6772 1.21593 4.53562 2.20383L5.84438 3.71617ZM9.15634 1.83174C10.4404 1.37314 11.8259 1.14 13.32 1.14V-0.86C11.6141 -0.86 9.99957 -0.593137 8.48366 -0.0517431L9.15634 1.83174ZM13.32 1.14C14.8574 1.14 16.2506 1.37412 17.5094 1.83019L18.1906 -0.0501918C16.6894 -0.594124 15.0626 -0.86 13.32 -0.86V1.14ZM17.5215 1.8345C18.788 2.27504 19.8728 2.90193 20.7884 3.70984L22.1116 2.21016C20.9872 1.21807 19.672 0.46496 18.1785 -0.0544979L17.5215 1.8345ZM20.7956 3.71617C21.7269 4.52207 22.4507 5.48649 22.9716 6.61814L24.7884 5.78185C24.1493 4.3935 23.2531 3.19793 22.1044 2.20383L20.7956 3.71617ZM22.9742 6.62368C23.4872 7.72054 23.75 8.93435 23.75 10.28H25.75C25.75 8.66565 25.4328 7.15946 24.7858 5.77631L22.9742 6.62368ZM23.75 10.28C23.75 11.6751 23.4936 12.9 23.0012 13.9728L24.8188 14.8072C25.4464 13.44 25.75 11.9249 25.75 10.28H23.75ZM22.9956 13.9853C22.5079 15.0869 21.845 16.0251 21.0066 16.81L22.3734 18.27C23.4151 17.2949 24.2321 16.1331 24.8244 14.7947L22.9956 13.9853ZM21.69 18.54H26.4V16.54H21.69V18.54ZM25.4 17.54V21.5H27.4V17.54H25.4ZM26.4 20.5H15.42V22.5H26.4V20.5ZM16.42 21.5V17.81H14.42V21.5H16.42ZM15.8821 18.6968C17.4422 17.8838 18.6738 16.7873 19.5388 15.3987L17.8412 14.3413C17.1862 15.3927 16.2378 16.2562 14.9579 16.9232L15.8821 18.6968ZM19.5365 15.4025C20.4179 14.0012 20.86 12.4563 20.86 10.79H18.86C18.86 12.0836 18.5221 13.2588 17.8435 14.3375L19.5365 15.4025ZM20.86 10.79C20.86 9.68294 20.6827 8.6541 20.3085 7.71861L18.4515 8.46139C18.7173 9.1259 18.86 9.89706 18.86 10.79H20.86ZM20.3085 7.71861C19.9397 6.79655 19.4131 5.9954 18.7246 5.3306L17.3354 6.7694C17.8069 7.2246 18.1803 7.78345 18.4515 8.46139L20.3085 7.71861ZM18.7371 5.34289C18.0519 4.65773 17.2391 4.14166 16.3111 3.79367L15.6089 5.66633C16.2809 5.91834 16.8481 6.28226 17.3229 6.75711L18.7371 5.34289ZM16.3111 3.79367C15.3858 3.44669 14.3852 3.28 13.32 3.28V5.28C14.1748 5.28 14.9342 5.41331 15.6089 5.66633L16.3111 3.79367ZM13.32 3.28C12.2721 3.28 11.2819 3.44755 10.3589 3.79367L11.0611 5.66633C11.7381 5.41245 12.4879 5.28 13.32 5.28V3.28ZM10.3589 3.79367C9.43092 4.14166 8.61805 4.65773 7.93289 5.34289L9.34711 6.75711C9.82195 6.28226 10.3891 5.91834 11.0611 5.66633L10.3589 3.79367ZM7.94541 5.3306C7.26156 5.99086 6.72799 6.78516 6.33967 7.69886L8.18033 8.48114C8.47201 7.79484 8.85844 7.22914 9.3346 6.7694L7.94541 5.3306ZM6.33152 7.71861C5.95733 8.6541 5.78 9.68294 5.78 10.79H7.78C7.78 9.89706 7.92267 9.1259 8.18848 8.46139L6.33152 7.71861ZM5.78 10.79C5.78 12.4562 6.22199 14.0085 7.09974 15.4264L8.80027 14.3736C8.11801 13.2715 7.78 12.0838 7.78 10.79H5.78ZM7.10354 15.4325C7.98995 16.8416 9.23587 17.932 10.8078 18.7069L11.6922 16.9131C10.4241 16.288 9.47005 15.4384 8.79646 14.3675L7.10354 15.4325ZM10.25 17.81V21.5H12.25V17.81H10.25ZM11.25 20.5H0.27V22.5H11.25V20.5Z" fill="#006EB3"/>
</svg>
